<svg width="90" height="22" viewBox="0 0 90 22" fill="none" xmlns="http://www.w3.org/2000/svg">
<g clip-path="url(#clip0_600_33464)">
<rect x="2" y="2" width="20" height="20" fill="#0BAB7C"/>
<path d="M12 12C13.933 12 15.5 10.433 15.5 8.5C15.5 6.567 13.933 5 12 5C10.067 5 8.5 6.567 8.5 8.5C8.5 10.433 10.067 12 12 12Z" fill="url(#paint0_linear_600_33464)"/>
<path fill-rule="evenodd" clip-rule="evenodd" d="M11.7214 18.9148C9.587 17.4594 7.81192 15.476 6.54626 13.1323C6.49733 13.0384 6.4867 12.9271 6.51684 12.8245C6.54698 12.7219 6.61525 12.6371 6.70563 12.5899L9.18052 11.2916C9.35364 11.2014 9.56257 11.2699 9.65864 11.4483C10.9099 13.69 12.7601 15.4802 14.9711 16.5885C14.1557 17.4667 13.2527 18.2468 12.2782 18.9148C12.1079 19.0285 11.8917 19.0285 11.7214 18.9148Z" fill="white"/>
<path fill-rule="evenodd" clip-rule="evenodd" d="M12.2781 18.9148C14.4127 17.4598 16.1879 15.4763 17.4532 13.1323C17.5022 13.0386 17.5132 12.9275 17.4834 12.8249C17.4536 12.7224 17.3857 12.6374 17.2957 12.5899L14.8189 11.2916C14.6458 11.2014 14.4369 11.2699 14.3408 11.4483C13.0898 13.6902 11.2396 15.4805 9.02832 16.5885C9.84326 17.4673 10.7463 18.2474 11.7212 18.9148C11.8916 19.0285 12.1077 19.0285 12.2781 18.9148Z" fill="url(#paint1_linear_600_33464)"/>
</g>
<path d="M31.96 19.59C34.952 19.59 37.13 17.962 37.13 14.508V4.65203H33.984V14.464C33.984 15.872 33.082 16.818 31.696 16.818C30.684 16.818 29.936 16.312 29.364 15.762L28 18.138C29.056 19.172 30.464 19.59 31.96 19.59Z" fill="#0BAB7C"/>
<path d="M46.9932 19.59C51.4152 19.59 54.6492 16.422 54.6492 12C54.6492 7.57803 51.4152 4.41003 46.9932 4.41003C42.5492 4.41003 39.3152 7.57803 39.3152 12C39.3152 16.422 42.5492 19.59 46.9932 19.59ZM46.9932 16.818C44.2652 16.818 42.5272 14.728 42.5272 12C42.5272 9.25003 44.2652 7.18203 46.9932 7.18203C49.6992 7.18203 51.4372 9.25003 51.4372 12C51.4372 14.728 49.6992 16.818 46.9932 16.818Z" fill="#0BAB7C"/>
<path d="M64.8055 19.326C67.6215 19.326 69.0735 17.566 69.0735 15.344C69.0735 13.518 67.8415 12 66.2575 11.758C67.6435 11.472 68.7875 10.218 68.7875 8.39204C68.7875 6.43403 67.3575 4.65203 64.5635 4.65203H56.8415V19.326H64.8055ZM63.8815 10.482H59.9655V7.40203H63.8815C64.9375 7.40203 65.5975 8.04003 65.5975 8.94203C65.5975 9.88803 64.9375 10.482 63.8815 10.482ZM64.0135 16.576H59.9655V13.232H64.0135C65.2235 13.232 65.8835 13.98 65.8835 14.904C65.8835 15.96 65.1795 16.576 64.0135 16.576Z" fill="#0BAB7C"/>
<path d="M74.5534 19.326V4.65203H71.4294V19.326H74.5534Z" fill="#0BAB7C"/>
<path d="M84.0005 19.326V7.40203H88.2685V4.65203H76.5645V7.40203H80.8545V19.326H84.0005Z" fill="#0BAB7C"/>
<defs>
<linearGradient id="paint0_linear_600_33464" x1="12" y1="5" x2="12" y2="12" gradientUnits="userSpaceOnUse">
<stop stop-color="white"/>
<stop offset="1" stop-color="#FBFCFF"/>
</linearGradient>
<linearGradient id="paint1_linear_600_33464" x1="13.2641" y1="11.252" x2="13.2641" y2="19.0001" gradientUnits="userSpaceOnUse">
<stop stop-color="white"/>
<stop offset="1" stop-color="white" stop-opacity="0.62"/>
</linearGradient>
<clipPath id="clip0_600_33464">
<rect x="2" y="2" width="20" height="20" rx="4" fill="white"/>
</clipPath>
</defs>
</svg>
