<svg xmlns="http://www.w3.org/2000/svg" width="53" height="53" viewBox="0 0 53 53" fill="none">
  <g clip-path="url(#clip0_10985_6867)">
    <path d="M12.5042 20.3209C6.94197 25.8831 6.94197 34.9336 12.5042 40.4958L32.6792 20.3208C27.1171 14.7587 18.0666 14.7586 12.5042 20.3209Z" fill="#E6FFFF"/>
    <path d="M28.8947 16.1492H19.5343L11.9556 21.0968V41.0444L22.3188 34.8435L32.5042 20.4957L28.8947 16.1492Z" fill="#0BAB7C"/>
    <path d="M32.5042 20.4956L11.9556 41.0443V43.7228H28.8947L30.7273 41.6868L34.703 27.4401L33.5957 21.8099L32.5042 20.4956Z" fill="#0BAB7C"/>
    <path d="M28.8947 16.1493L33.5957 21.8101L29.3063 0H11.9556V21.0969L19.5343 16.1493H28.8947Z" fill="#0BAB7C"/>
    <path d="M29.3064 0H46.6572V46.7791H29.3064V0Z" fill="#0BAB7C"/>
    <path d="M52.9999 53.0001V16.2364L46.4511 13.3675L42.9846 6.22095H35.6491L30.2524 25.5598L35.6491 53.0001H52.9999Z" fill="#D9F2FF"/>
    <path d="M42.9846 6.22095L53 16.2363H42.9846V6.22095Z" fill="#CCDDFF"/>
    <path d="M46.4425 25.568V22.4575H35.6491L33.1475 24.0081L35.6491 25.568H46.4425Z" fill="#BCCBFF"/>
    <path d="M46.4424 31.7891V28.6787H35.649L32.5386 30.2339L35.649 31.7891H46.4424Z" fill="#BCCBFF"/>
    <path d="M46.4424 38.0872V34.9768H35.649L32.5386 36.532L35.649 38.0872H46.4424Z" fill="#BCCBFF"/>
    <path d="M37.7947 41.3918H46.4425V44.5023H37.7947V41.3918Z" fill="#BCCBFF"/>
    <path d="M33.7815 22.034L35.6491 24.283V6.22095H18.2983V16.956C19.1047 16.4296 20.0469 16.1492 21.0099 16.1492H21.2451C26.0911 16.1493 30.6855 18.306 33.7815 22.034Z" fill="#E6FFFF"/>
    <path d="M18.2983 43.7229V53H35.6491V36.219L31.7867 40.5098C29.9457 42.5551 27.3232 43.7229 24.5714 43.7229H18.2983Z" fill="#E6FFFF"/>
    <path d="M23.2445 16.1492H21.0099C20.0469 16.1492 19.1047 16.4295 18.2983 16.956V34.7015L25.1476 30.2338L32.5041 20.4957C30.2173 17.7422 26.8237 16.1492 23.2445 16.1492Z" fill="#E6FFFF"/>
    <path d="M18.2983 34.7015V43.723H23.8888C27.0976 43.723 30.1788 42.4663 32.4723 40.2223C35.0659 37.6847 36.4037 34.1295 36.1264 30.5116L35.9477 28.1797C35.7534 25.6446 34.7766 23.2324 33.1522 21.2764L32.504 20.4958L18.2983 34.7015Z" fill="#D9F2FF"/>
    <path d="M24.856 22.4575V25.568H27.4323L30.5427 24.0127V22.4575H24.856Z" fill="#D9F2FF"/>
    <path d="M27.4324 25.568H35.6494V22.4575H30.5428L27.4324 25.568Z" fill="#CCDDFF"/>
    <path d="M24.856 28.6787H36.8488V31.7891H24.856V28.6787Z" fill="#CCDDFF"/>
    <path d="M24.856 34.9766H35.6493V38.087H24.856V34.9766Z" fill="#CCDDFF"/>
    <path d="M12.0275 40.6092L9.55698 37.4451L0 47.0019L2.99905 50.001L8.33239 47.3087L12.2289 40.7711L12.0275 40.6092Z" fill="#4BD9AF"/>
    <path d="M2.99902 50.0011L5.99808 53.0002L15.5551 43.4432L12.2289 40.7712L2.99902 50.0011Z" fill="#19BD8D"/>
    <path d="M13.4031 39.597C8.33662 34.5304 8.33662 26.2867 13.4031 21.2201C15.9367 18.6865 19.2636 17.4202 22.5917 17.4202C25.9188 17.4202 29.2472 18.6872 31.7801 21.2201L33.8818 21.5238L33.976 19.0242C27.6987 12.7468 17.4847 12.7468 11.2073 19.0242C4.92992 25.3016 4.92992 35.5155 11.2073 41.7929L13.9134 42.4556L13.4031 39.597Z" fill="#B3D4DF"/>
    <path d="M33.9761 19.0242L31.7802 21.22C36.8466 26.2866 36.8466 34.5304 31.7802 39.597C26.7136 44.6634 18.4698 44.6634 13.4032 39.597L11.2073 41.7928C14.346 44.9315 18.4688 46.5008 22.5916 46.5008C26.7144 46.5008 30.8373 44.9314 33.976 41.7928C40.2533 35.5155 40.2533 25.3015 33.9761 19.0242Z" fill="#91B0C5"/>
  </g>
  <defs>
    <clipPath id="clip0_10985_6867">
      <rect width="53" height="53" fill="white"/>
    </clipPath>
  </defs>
</svg>