<svg width="20" height="20" viewBox="0 0 20 20" fill="none" xmlns="http://www.w3.org/2000/svg">
<g clip-path="url(#clip0_11128_4258)">
<rect width="20" height="20" fill="#0BAB7C"/>
<path d="M10 10C11.933 10 13.5 8.433 13.5 6.5C13.5 4.567 11.933 3 10 3C8.067 3 6.5 4.567 6.5 6.5C6.5 8.433 8.067 10 10 10Z" fill="url(#paint0_linear_11128_4258)"/>
<path fill-rule="evenodd" clip-rule="evenodd" d="M9.72135 16.9148C7.587 15.4594 5.81192 13.476 4.54626 11.1323C4.49733 11.0384 4.4867 10.9271 4.51684 10.8245C4.54698 10.7219 4.61525 10.6371 4.70563 10.5899L7.18052 9.29164C7.35364 9.2014 7.56257 9.26985 7.65864 9.44829C8.9099 11.69 10.7601 13.4802 12.9711 14.5885C12.1557 15.4667 11.2527 16.2468 10.2782 16.9148C10.1079 17.0285 9.89174 17.0285 9.72135 16.9148Z" fill="white"/>
<path fill-rule="evenodd" clip-rule="evenodd" d="M10.2781 16.9148C12.4127 15.4598 14.1879 13.4763 15.4532 11.1323C15.5022 11.0386 15.5132 10.9275 15.4834 10.8249C15.4536 10.7224 15.3857 10.6374 15.2957 10.5899L12.8189 9.29164C12.6458 9.2014 12.4369 9.26985 12.3408 9.44829C11.0898 11.6902 9.23955 13.4805 7.02832 14.5885C7.84326 15.4673 8.74634 16.2474 9.7212 16.9148C9.89159 17.0285 10.1077 17.0285 10.2781 16.9148Z" fill="url(#paint1_linear_11128_4258)"/>
</g>
<defs>
<linearGradient id="paint0_linear_11128_4258" x1="10" y1="3" x2="10" y2="10" gradientUnits="userSpaceOnUse">
<stop stop-color="white"/>
<stop offset="1" stop-color="#FBFCFF"/>
</linearGradient>
<linearGradient id="paint1_linear_11128_4258" x1="11.2641" y1="9.25195" x2="11.2641" y2="17.0001" gradientUnits="userSpaceOnUse">
<stop stop-color="white"/>
<stop offset="1" stop-color="white" stop-opacity="0.62"/>
</linearGradient>
<clipPath id="clip0_11128_4258">
<rect width="20" height="20" rx="4" fill="white"/>
</clipPath>
</defs>
</svg>
