<svg width="19" height="20" viewBox="0 0 19 20" fill="none" xmlns="http://www.w3.org/2000/svg">
<path d="M13.3158 2.08331H5.68417C3.99792 2.08331 2.62833 3.46081 2.62833 5.13915V16.2937C2.62833 17.7187 3.64958 18.3204 4.90042 17.6316L8.76375 15.4862C9.17542 15.2566 9.84042 15.2566 10.2442 15.4862L14.1075 17.6316C15.3583 18.3283 16.3796 17.7266 16.3796 16.2937V5.13915C16.3717 3.46081 15.0021 2.08331 13.3158 2.08331ZM11.8829 8.21873C11.115 8.49581 10.3075 8.63831 9.5 8.63831C8.6925 8.63831 7.885 8.49581 7.11708 8.21873C6.80833 8.1079 6.65 7.76748 6.76083 7.45873C6.87958 7.14998 7.22 6.99165 7.52875 7.10248C8.80333 7.56165 10.2046 7.56165 11.4792 7.10248C11.7879 6.99165 12.1283 7.14998 12.2392 7.45873C12.35 7.76748 12.1917 8.1079 11.8829 8.21873Z" fill="#92929D" fill-opacity="0.7"/>
</svg>
