<svg width="64" height="65" viewBox="0 0 64 65" fill="none" xmlns="http://www.w3.org/2000/svg">
<g id="Company Logo">
<path id="Base" d="M0 9.45771C0 4.74488 3.8205 0.924377 8.53333 0.924377H55.4667C60.1795 0.924377 64 4.74488 64 9.45771V56.391C64 61.1039 60.1795 64.9244 55.4667 64.9244H8.53333C3.8205 64.9244 0 61.1039 0 56.391V9.45771Z" fill="#3080E3"/>
<path id="Rectangle" d="M35.7898 34.7787C35.7898 30.9344 38.9063 27.8179 42.7507 27.8179C46.595 27.8179 49.7115 30.9344 49.7115 34.7787V36.5001C49.7115 40.3445 46.595 43.461 42.7507 43.461C38.9063 43.461 35.7898 40.3445 35.7898 36.5001V34.7787Z" fill="#F4F4F4"/>
<path id="Union" fill-rule="evenodd" clip-rule="evenodd" d="M30.3946 35.8695V13.6695H32.5889V13.0369H14.2886V13.6695H16.4729V37.9537C16.3879 45.3282 21.2022 58.1454 41.1398 50.4184C34.5883 50.4184 30.3946 47.8685 30.3946 35.8695Z" fill="#F4F4F4"/>
</g>
</svg>
