<svg width="48" height="48" viewBox="0 0 48 48" fill="none" xmlns="http://www.w3.org/2000/svg">
<path d="M24.0127 44.4977L32.2927 19.0146H15.7327L24.0127 44.4977Z" fill="#E24329"/>
<path d="M24.0129 44.4977L15.7329 19.0146H4.12866L24.0129 44.4977Z" fill="#FC6D26"/>
<path d="M4.12849 19.0146L1.61235 26.7587C1.38285 27.465 1.63421 28.2388 2.23506 28.6753L24.0127 44.4977L4.12849 19.0146Z" fill="#FCA326"/>
<path d="M4.12891 19.0143H15.7331L10.746 3.66604C10.4895 2.87619 9.37226 2.8764 9.11576 3.66604L4.12891 19.0143Z" fill="#E24329"/>
<path d="M24.0142 44.4977L32.2942 19.0146H43.8984L24.0142 44.4977Z" fill="#FC6D26"/>
<path d="M43.8984 19.0146L46.4145 26.7587C46.644 27.465 46.3927 28.2388 45.7918 28.6753L24.0142 44.4977L43.8984 19.0146Z" fill="#FCA326"/>
<path d="M43.8977 19.0143H32.2935L37.2805 3.66604C37.537 2.87619 38.6543 2.8764 38.9108 3.66604L43.8977 19.0143Z" fill="#E24329"/>
</svg>
