<svg width="36" height="36" viewBox="0 0 36 36" fill="none" xmlns="http://www.w3.org/2000/svg">
<path d="M33.7516 18.3499C33.7516 17.0549 33.6443 16.1099 33.4123 15.1299H18.323V20.9748H27.1801C27.0016 22.4274 26.0373 24.6149 23.8944 26.0848L23.8643 26.2805L28.6353 29.9025L28.9658 29.9349C32.0015 27.1873 33.7516 23.1448 33.7516 18.3499Z" fill="#4285F4"/>
<path d="M18.322 33.7499C22.6612 33.7499 26.304 32.3498 28.9648 29.9348L23.8933 26.0847C22.5362 27.0122 20.7148 27.6597 18.322 27.6597C14.072 27.6597 10.4649 24.9123 9.17908 21.1147L8.99061 21.1304L4.02972 24.893L3.96484 25.0697C6.60766 30.2147 12.0362 33.7499 18.322 33.7499Z" fill="#34A853"/>
<path d="M9.17996 21.1152C8.84068 20.1352 8.64433 19.0851 8.64433 18.0002C8.64433 16.9151 8.84068 15.8652 9.16211 14.8852L9.15312 14.6765L4.13005 10.8535L3.96571 10.9301C2.87647 13.0652 2.25146 15.4627 2.25146 18.0002C2.25146 20.5377 2.87647 22.9351 3.96571 25.0701L9.17996 21.1152Z" fill="#FBBC05"/>
<path d="M18.3221 8.33996C21.3399 8.33996 23.3755 9.61745 24.5363 10.685L29.072 6.345C26.2864 3.80751 22.6613 2.25 18.3221 2.25C12.0363 2.25 6.60768 5.78497 3.96484 10.9299L9.16126 14.885C10.465 11.0875 14.0721 8.33996 18.3221 8.33996Z" fill="#EB4335"/>
</svg>
