
<svg width="20" height="20" viewBox="0 0 20 20" fill="none" xmlns="http://www.w3.org/2000/svg">
<path fill-rule="evenodd" clip-rule="evenodd" d="M6.54762 0.872986H14.2857C16.039 0.872986 17.4603 2.2943 17.4603 4.04759V16.8432C17.4603 17.7199 16.7497 18.4305 15.873 18.4305C15.5126 18.4305 15.1628 18.3078 14.8814 18.0826L10.4167 14.5104L5.95198 18.0826C5.26747 18.6303 4.26859 18.5194 3.72091 17.8349C3.49571 17.5534 3.37302 17.2037 3.37302 16.8432V4.04759C3.37302 2.2943 4.79433 0.872986 6.54762 0.872986ZM6.54762 2.46029C5.67098 2.46029 4.96032 3.17095 4.96032 4.04759V16.8432L9.42501 13.271C10.0048 12.8072 10.8286 12.8072 11.4083 13.271L15.873 16.8432V4.04759C15.873 3.17095 15.1624 2.46029 14.2857 2.46029H6.54762Z" fill="#92929D"/>
</svg>
