<svg width="16" height="16" viewBox="0 0 16 16" fill="none" xmlns="http://www.w3.org/2000/svg">
<path fill-rule="evenodd" clip-rule="evenodd" d="M4.66667 7.99998C4.66667 7.2636 4.06971 6.66665 3.33333 6.66665C2.59695 6.66665 2 7.2636 2 7.99998C2 8.73636 2.59695 9.33331 3.33333 9.33331C4.06971 9.33331 4.66667 8.73636 4.66667 7.99998ZM9.33333 7.99998C9.33333 7.2636 8.73638 6.66665 8 6.66665C7.26362 6.66665 6.66667 7.2636 6.66667 7.99998C6.66667 8.73636 7.26362 9.33331 8 9.33331C8.73638 9.33331 9.33333 8.73636 9.33333 7.99998ZM12.6667 6.66665C13.403 6.66665 14 7.2636 14 7.99998C14 8.73636 13.403 9.33331 12.6667 9.33331C11.9303 9.33331 11.3333 8.73636 11.3333 7.99998C11.3333 7.2636 11.9303 6.66665 12.6667 6.66665Z" fill="#92929D"/>
</svg>
